<svg width="140" height="80" viewBox="0 0 140 80" fill="none" xmlns="http://www.w3.org/2000/svg">
<g clip-path="url(#clip0_178_337)">
<mask id="mask0_178_337" style="mask-type:luminance" maskUnits="userSpaceOnUse" x="0" y="0" width="139" height="67">
<path d="M138.635 0H0V66.7815H138.635V0Z" fill="white"/>
</mask>
<g mask="url(#mask0_178_337)">
<path d="M0 0H138.55V66.7815H0V0Z" fill="white"/>
</g>
<mask id="mask1_178_337" style="mask-type:luminance" maskUnits="userSpaceOnUse" x="0" y="1" width="46" height="65">
<path d="M45.2368 1.08203H0.906006V65.6955H45.2368V1.08203Z" fill="white"/>
</mask>
<g mask="url(#mask1_178_337)">
<path d="M0.906006 1.08203H45.2368V65.7887H0.906006V1.08203Z" fill="#214080"/>
</g>
<mask id="mask2_178_337" style="mask-type:luminance" maskUnits="userSpaceOnUse" x="6" y="13" width="35" height="41">
<path d="M40.0892 13.6196H6.1792V53.2144H40.0892V13.6196Z" fill="white"/>
</mask>
<g mask="url(#mask2_178_337)">
<mask id="mask3_178_337" style="mask-type:luminance" maskUnits="userSpaceOnUse" x="6" y="13" width="34" height="41">
<path d="M38.0516 13.6198C32.5306 16.1079 27.3054 16.9345 22.8051 16.9345C13.8783 16.9345 7.77297 13.6806 7.77297 13.6806L6.18286 17.7531C10.3689 19.5523 14.3553 20.5492 18.031 21.0071C18.6079 26.5384 18.7152 38.4521 11.4487 50.3172L14.6289 53.1578C14.6289 53.1578 23.6223 40.7011 22.0285 21.3029L24.0956 21.311C22.4981 40.7011 31.4952 53.1578 31.4952 53.1578L34.6754 50.3172C27.4312 38.4643 27.531 26.5627 28.1042 21.0233C35.3891 20.1358 39.9598 17.5991 39.9598 17.5991L38.0516 13.6157V13.6198Z" fill="white"/>
</mask>
<g mask="url(#mask3_178_337)">
<path d="M6.1792 13.6196H39.9561V53.0928H6.1792V13.6196Z" fill="white"/>
</g>
</g>
<path d="M66.6145 17.6475C69.7171 17.6475 72.4018 18.2796 74.6649 19.548C76.9354 20.8163 78.6734 22.6237 79.8901 24.978C81.103 27.3324 81.7095 30.1001 81.7095 33.2852C81.7095 36.4703 81.103 39.242 79.8901 41.5842C78.6771 43.9224 76.9354 45.7095 74.6649 46.9454C72.3981 48.1773 69.7134 48.7932 66.6145 48.7932H57.769V17.6475H66.6145ZM66.6145 45.438C70.2865 45.438 73.0859 44.3722 75.0125 42.2448C76.9428 40.1133 77.908 37.1227 77.908 33.2771C77.908 29.4315 76.9317 26.3842 74.9866 24.2081C73.0452 22.028 70.2533 20.942 66.6108 20.942H61.4707V45.4339H66.6108L66.6145 45.438Z" fill="#214080"/>
<path d="M94.9961 17.6475V48.7892H91.2908V17.6475H94.9961Z" fill="#214080"/>
<path d="M115.017 49.1015C113.142 49.1015 111.463 48.7368 109.977 48.0114C108.497 47.282 107.336 46.2689 106.493 44.9722C105.65 43.6714 105.217 42.1761 105.191 40.4823H109.144C109.285 41.9411 109.832 43.1689 110.794 44.1617C111.759 45.1586 113.168 45.657 115.017 45.657C116.866 45.657 118.175 45.1748 119.192 44.2063C120.212 43.2378 120.726 41.9978 120.726 40.4823C120.726 39.2909 120.427 38.3224 119.824 37.5768C119.229 36.8312 118.478 36.2639 117.583 35.8789C116.688 35.4899 115.483 35.0725 113.963 34.6227C112.084 34.0878 110.576 33.5529 109.448 33.018C108.324 32.479 107.358 31.6362 106.56 30.4934C105.757 29.3466 105.358 27.8027 105.358 25.8657C105.358 24.1678 105.75 22.6604 106.537 21.3474C107.329 20.0385 108.438 19.0255 109.866 18.3082C111.293 17.595 112.931 17.2344 114.78 17.2344C117.439 17.2344 119.621 17.9678 121.322 19.4307C123.019 20.8895 123.981 22.8265 124.195 25.2376H120.12C119.979 24.0462 119.406 22.9967 118.4 22.089C117.398 21.1772 116.067 20.7193 114.41 20.7193C112.857 20.7193 111.593 21.157 110.613 22.0363C109.636 22.9157 109.148 24.1435 109.148 25.7239C109.148 26.8545 109.44 27.7784 110.028 28.4916C110.613 29.2088 111.334 29.7478 112.184 30.1206C113.042 30.4934 114.244 30.9189 115.797 31.3971C117.672 31.9684 119.181 32.5277 120.32 33.0788C121.462 33.6258 122.442 34.4728 123.256 35.6195C124.073 36.7663 124.48 38.3265 124.48 40.2878C124.48 41.8074 124.114 43.2419 123.378 44.5832C122.642 45.9245 121.555 47.0105 120.113 47.8412C118.674 48.676 116.977 49.0893 115.021 49.0893L115.017 49.1015Z" fill="#214080"/>
<path d="M2.93244 72.7061C3.45755 72.7061 3.9087 72.8155 4.28958 73.0262C4.67417 73.241 4.97 73.5489 5.17709 73.946C5.38047 74.3391 5.48401 74.8092 5.48401 75.3481C5.48401 75.8871 5.38047 76.349 5.17709 76.7502C4.97 77.1433 4.67787 77.4472 4.28958 77.6539C3.9087 77.8646 3.45755 77.9659 2.93244 77.9659H1.43848V72.7061H2.93244ZM2.93244 77.3986C3.55369 77.3986 4.02703 77.2203 4.34875 76.8596C4.67417 76.499 4.83318 75.9965 4.83318 75.3481C4.83318 74.6998 4.66677 74.1892 4.34135 73.8204C4.01593 73.4476 3.5463 73.2612 2.93244 73.2612H2.06343V77.3986H2.93244Z" fill="white"/>
<path d="M6.62671 73.1596C6.50838 73.1596 6.40484 73.115 6.31979 73.0258C6.23843 72.9326 6.19775 72.8192 6.19775 72.6895C6.19775 72.5598 6.23843 72.4504 6.31979 72.3613C6.40484 72.2721 6.50838 72.2275 6.62671 72.2275C6.73765 72.2275 6.8338 72.2721 6.91145 72.3613C6.99281 72.4504 7.03349 72.5598 7.03349 72.6895C7.03349 72.8192 6.99281 72.9326 6.91145 73.0258C6.8338 73.115 6.73765 73.1596 6.62671 73.1596ZM6.92625 73.8282V77.9656H6.3013V73.8282H6.92625Z" fill="white"/>
<path d="M9.55176 73.7594C9.87718 73.7594 10.1619 73.8405 10.406 73.9945C10.6537 74.1484 10.8349 74.3389 10.9533 74.578V73.8283H11.593V78.0589C11.593 78.4358 11.5191 78.7721 11.3711 79.0639C11.2195 79.3556 11.0124 79.5825 10.7388 79.7487C10.4652 79.9189 10.1471 80.004 9.78473 80.004C9.29291 80.004 8.87874 79.8743 8.54592 79.615C8.21681 79.3597 8.02082 79.0152 7.96165 78.5776H8.5866C8.65316 78.8248 8.79369 79.0233 9.01186 79.1773C9.22634 79.3354 9.4852 79.4123 9.78843 79.4123C10.1323 79.4123 10.4134 79.2948 10.6279 79.0557C10.846 78.8207 10.9607 78.4844 10.9607 78.0589V77.1876C10.8386 77.4308 10.6537 77.6334 10.406 77.7955C10.1619 77.9535 9.88088 78.0305 9.55916 78.0305C9.23744 78.0305 8.91942 77.9414 8.64207 77.759C8.36842 77.5807 8.15394 77.3254 7.99493 76.9972C7.83962 76.6649 7.76196 76.2921 7.76196 75.8747C7.76196 75.4573 7.83962 75.0845 7.99493 74.7684C8.15394 74.4483 8.36842 74.2011 8.64207 74.0269C8.91942 73.8486 9.22265 73.7554 9.55916 73.7554L9.55176 73.7594ZM10.9533 75.8869C10.9533 75.5789 10.8941 75.3074 10.7832 75.0764C10.6685 74.8414 10.5169 74.6631 10.3209 74.5456C10.1249 74.424 9.91046 74.3592 9.67379 74.3592C9.43713 74.3592 9.22265 74.424 9.02666 74.5456C8.83436 74.6631 8.68275 74.8373 8.57181 75.0683C8.45717 75.2993 8.4017 75.5708 8.4017 75.8788C8.4017 76.1867 8.45717 76.4785 8.57181 76.7135C8.68275 76.9445 8.83436 77.1228 9.02666 77.2444C9.22265 77.37 9.43713 77.4308 9.67379 77.4308C9.91046 77.4308 10.1249 77.37 10.3209 77.2444C10.5169 77.1228 10.6685 76.9445 10.7832 76.7135C10.8941 76.4785 10.9533 76.2029 10.9533 75.8869Z" fill="white"/>
<path d="M12.9724 73.1596C12.8541 73.1596 12.7505 73.115 12.6655 73.0258C12.5841 72.9326 12.5435 72.8192 12.5435 72.6895C12.5435 72.5598 12.5841 72.4504 12.6655 72.3613C12.7505 72.2721 12.8541 72.2275 12.9724 72.2275C13.0834 72.2275 13.1795 72.2721 13.2572 72.3613C13.3385 72.4504 13.3792 72.5598 13.3792 72.6895C13.3792 72.8192 13.3385 72.9326 13.2572 73.0258C13.1795 73.115 13.0834 73.1596 12.9724 73.1596ZM13.272 73.8282V77.9656H12.647V73.8282H13.272Z" fill="white"/>
<path d="M15.1024 74.3915V76.8309C15.1024 77.0336 15.1394 77.1754 15.217 77.2605C15.2947 77.3415 15.4278 77.378 15.6238 77.378H16.0861V77.9615H15.524C15.1727 77.9615 14.9101 77.8764 14.7363 77.6981C14.5625 77.5198 14.4738 77.2281 14.4738 76.8269V74.3874H13.9819V73.8201H14.4738V72.7827H15.0987V73.8201H16.0861V74.3874H15.0987L15.1024 74.3915Z" fill="white"/>
<path d="M16.6074 75.8786C16.6074 75.4572 16.6851 75.0884 16.8404 74.7723C16.9994 74.4522 17.2139 74.205 17.4875 74.0308C17.7649 73.8525 18.0681 73.7593 18.4046 73.7593C18.7411 73.7593 19.0185 73.8403 19.2588 73.9943C19.5066 74.1483 19.6878 74.3387 19.8061 74.5778V73.8282H20.4459V77.9655H19.8061V77.1956C19.6841 77.4387 19.4992 77.6373 19.2514 77.7953C19.0037 77.9534 18.7189 78.0304 18.3972 78.0304C18.0755 78.0304 17.7612 77.9412 17.4875 77.7589C17.2139 77.5806 16.9994 77.3253 16.8404 76.997C16.6851 76.6648 16.6074 76.2919 16.6074 75.8746V75.8786ZM19.8061 75.8867C19.8061 75.5787 19.747 75.3072 19.636 75.0763C19.5214 74.8412 19.3698 74.6629 19.1738 74.5454C18.9778 74.4239 18.7633 74.359 18.5266 74.359C18.29 74.359 18.0755 74.4239 17.8795 74.5454C17.6872 74.6629 17.5356 74.8372 17.4247 75.0682C17.31 75.2991 17.2546 75.5706 17.2546 75.8786C17.2546 76.1866 17.31 76.4784 17.4247 76.7134C17.5356 76.9444 17.6872 77.1227 17.8795 77.2442C18.0755 77.3698 18.29 77.4306 18.5266 77.4306C18.7633 77.4306 18.9778 77.3698 19.1738 77.2442C19.3698 77.1227 19.5214 76.9444 19.636 76.7134C19.747 76.4784 19.8061 76.2028 19.8061 75.8867Z" fill="white"/>
<path d="M22.121 72.3735V77.9616H21.4961V72.3735H22.121Z" fill="white"/>
<path d="M25.6525 72.7061V77.9659H25.0276V72.7061H25.6525Z" fill="white"/>
<path d="M28.5628 73.7515C29.0176 73.7515 29.3874 73.9055 29.6721 74.2094C29.9606 74.5133 30.1048 74.9509 30.1048 75.5264V77.9658H29.4798V75.6277C29.4798 75.2184 29.3837 74.9023 29.1951 74.6835C29.0102 74.4647 28.7551 74.3553 28.4333 74.3553C28.1116 74.3553 27.8343 74.4687 27.6383 74.6916C27.4423 74.9185 27.3461 75.2468 27.3461 75.6803V77.9699H26.7212V73.8325H27.3461V74.4241C27.4682 74.2094 27.6346 74.0473 27.8454 73.9338C28.0598 73.8163 28.3002 73.7555 28.5628 73.7555V73.7515Z" fill="white"/>
<path d="M32.6564 74.3916H31.8613V77.9617H31.2364V74.3916H30.752V73.8243H31.2364V73.5285C31.2364 73.0665 31.3436 72.7302 31.5618 72.5154C31.78 72.3007 32.135 72.1953 32.6157 72.1953V72.7707C32.3384 72.7707 32.1424 72.8315 32.0314 72.949C31.9168 73.0666 31.8613 73.2611 31.8613 73.5326V73.8284H32.6564V74.3957V74.3916Z" fill="white"/>
<path d="M35.0378 78.0304C34.6828 78.0304 34.3611 77.9453 34.0763 77.767C33.7879 77.5887 33.5623 77.3374 33.3996 77.0173C33.2332 76.6931 33.1519 76.3163 33.1519 75.8867C33.1519 75.4572 33.2369 75.0925 33.407 74.7723C33.5771 74.4482 33.8027 74.1969 34.0911 74.0227C34.3796 73.8484 34.7013 73.7593 35.0637 73.7593C35.4261 73.7593 35.7441 73.8484 36.0362 74.0227C36.3247 74.1969 36.554 74.4441 36.7204 74.7642C36.8868 75.0844 36.9755 75.4612 36.9755 75.8867C36.9755 76.3122 36.8868 76.6931 36.713 77.0173C36.5429 77.3374 36.3099 77.5887 36.0104 77.767C35.7182 77.9412 35.3928 78.0304 35.0378 78.0304ZM35.0378 77.4306C35.256 77.4306 35.4668 77.3699 35.6628 77.2523C35.8624 77.1348 36.0251 76.9606 36.1472 76.7296C36.2692 76.4986 36.3321 76.219 36.3321 75.8867C36.3321 75.5544 36.2692 75.2748 36.1472 75.0438C36.0288 74.8129 35.8735 74.6427 35.6775 74.5292C35.4853 74.4157 35.2782 74.359 35.0526 74.359C34.827 74.359 34.6088 74.4157 34.4202 74.5292C34.228 74.6427 34.0763 74.8129 33.9654 75.0438C33.8508 75.2748 33.7953 75.5585 33.7953 75.8867C33.7953 76.215 33.8508 76.5108 33.958 76.7377C34.0689 76.9687 34.2206 77.1429 34.4128 77.2604C34.6014 77.3739 34.8085 77.4306 35.0378 77.4306Z" fill="white"/>
<path d="M38.4179 74.5011C38.5289 74.2661 38.6879 74.0838 38.8876 73.9541C39.0909 73.8204 39.3424 73.7515 39.6345 73.7515V74.4606H39.4718C38.7655 74.4606 38.4179 74.8821 38.4179 75.7168V77.9618H37.793V73.8244H38.4179V74.5011Z" fill="white"/>
<path d="M44.8965 73.7515C45.1887 73.7515 45.4512 73.8204 45.6842 73.9541C45.9172 74.0878 46.0947 74.2904 46.2241 74.5538C46.3572 74.8213 46.4238 75.1414 46.4238 75.5264V77.9658H45.8062V75.6277C45.8062 75.2184 45.7138 74.9023 45.5289 74.6835C45.344 74.4647 45.0925 74.3553 44.7745 74.3553C44.4565 74.3553 44.1828 74.4728 43.9868 74.6997C43.7945 74.9266 43.7021 75.2549 43.7021 75.6885V77.9699H43.0845V75.6317C43.0845 75.2224 42.9884 74.9064 42.7998 74.6875C42.6149 74.4687 42.3634 74.3593 42.0528 74.3593C41.7237 74.3593 41.4612 74.4768 41.2652 74.7038C41.0729 74.9307 40.9804 75.2589 40.9804 75.6925V77.9739H40.3555V73.8366H40.9804V74.4363C41.1025 74.2175 41.2689 74.0513 41.4796 73.9379C41.6904 73.8204 41.9197 73.7596 42.1749 73.7596C42.4929 73.7596 42.7702 73.8406 43.0143 73.9946C43.2546 74.1526 43.4395 74.3796 43.5616 74.6794C43.6651 74.3877 43.8352 74.1607 44.0793 74.0027C44.327 73.8406 44.597 73.7596 44.8965 73.7596V73.7515Z" fill="white"/>
<path d="M47.2078 75.8786C47.2078 75.4572 47.2854 75.0884 47.4407 74.7723C47.5997 74.4522 47.8142 74.205 48.0879 74.0308C48.3652 73.8525 48.6684 73.7593 49.005 73.7593C49.3415 73.7593 49.6188 73.8403 49.8592 73.9943C50.1069 74.1483 50.2881 74.3387 50.4065 74.5778V73.8282H51.0462V77.9655H50.4065V77.1956C50.2844 77.4387 50.0995 77.6373 49.8518 77.7953C49.604 77.9534 49.3193 78.0304 48.9976 78.0304C48.6758 78.0304 48.3615 77.9412 48.0879 77.7589C47.8142 77.5806 47.5997 77.3253 47.4407 76.997C47.2854 76.6648 47.2078 76.2919 47.2078 75.8746V75.8786ZM50.4065 75.8867C50.4065 75.5787 50.3473 75.3072 50.2364 75.0763C50.1217 74.8412 49.9701 74.6629 49.7741 74.5454C49.5781 74.4239 49.3637 74.359 49.127 74.359C48.8903 74.359 48.6758 74.4239 48.4799 74.5454C48.2876 74.6629 48.1359 74.8372 48.025 75.0682C47.9104 75.2991 47.8549 75.5706 47.8549 75.8786C47.8549 76.1866 47.9104 76.4784 48.025 76.7134C48.1359 76.9444 48.2876 77.1227 48.4799 77.2442C48.6758 77.3698 48.8903 77.4306 49.127 77.4306C49.3637 77.4306 49.5781 77.3698 49.7741 77.2442C49.9701 77.1227 50.1217 76.9444 50.2364 76.7134C50.3473 76.4784 50.4065 76.2028 50.4065 75.8867Z" fill="white"/>
<path d="M52.8619 74.3915V76.8309C52.8619 77.0336 52.8989 77.1754 52.9766 77.2605C53.0542 77.3415 53.1873 77.378 53.3833 77.378H53.8456V77.9615H53.2835C52.9322 77.9615 52.6696 77.8764 52.4958 77.6981C52.322 77.5198 52.2333 77.2281 52.2333 76.8269V74.3874H51.7415V73.8201H52.2333V72.7827H52.8582V73.8201H53.8456V74.3874H52.8582L52.8619 74.3915Z" fill="white"/>
<path d="M54.929 73.1596C54.8106 73.1596 54.7071 73.115 54.622 73.0258C54.5407 72.9326 54.5 72.8192 54.5 72.6895C54.5 72.5598 54.5407 72.4504 54.622 72.3613C54.7071 72.2721 54.8106 72.2275 54.929 72.2275C55.0399 72.2275 55.136 72.2721 55.2137 72.3613C55.2951 72.4504 55.3357 72.5598 55.3357 72.6895C55.3357 72.8192 55.2951 72.9326 55.2137 73.0258C55.136 73.115 55.0399 73.1596 54.929 73.1596ZM55.2285 73.8282V77.9656H54.6035V73.8282H55.2285Z" fill="white"/>
<path d="M57.9465 78.0304C57.5915 78.0304 57.2698 77.9453 56.985 77.767C56.6966 77.5887 56.471 77.3374 56.3083 77.0173C56.1419 76.6931 56.0605 76.3163 56.0605 75.8867C56.0605 75.4572 56.1456 75.0925 56.3157 74.7723C56.4858 74.4482 56.7114 74.1969 56.9998 74.0227C57.2883 73.8484 57.61 73.7593 57.9724 73.7593C58.3348 73.7593 58.6528 73.8484 58.9449 74.0227C59.2334 74.1969 59.4626 74.4441 59.629 74.7642C59.7955 75.0844 59.8842 75.4612 59.8842 75.8867C59.8842 76.3122 59.7955 76.6931 59.6217 77.0173C59.4515 77.3374 59.2186 77.5887 58.919 77.767C58.6269 77.9412 58.3015 78.0304 57.9465 78.0304ZM57.9465 77.4306C58.1647 77.4306 58.3754 77.3699 58.5714 77.2523C58.7711 77.1348 58.9338 76.9606 59.0559 76.7296C59.1779 76.4986 59.2408 76.219 59.2408 75.8867C59.2408 75.5544 59.1779 75.2748 59.0559 75.0438C58.9375 74.8129 58.7822 74.6427 58.5862 74.5292C58.3939 74.4157 58.1869 74.359 57.9613 74.359C57.7357 74.359 57.5175 74.4157 57.3289 74.5292C57.1366 74.6427 56.985 74.8129 56.8741 75.0438C56.7595 75.2748 56.704 75.5585 56.704 75.8867C56.704 76.215 56.7595 76.5108 56.8667 76.7377C56.9776 76.9687 57.1292 77.1429 57.3215 77.2604C57.5101 77.3739 57.7172 77.4306 57.9465 77.4306Z" fill="white"/>
<path d="M62.5432 73.7515C62.9981 73.7515 63.3679 73.9055 63.6526 74.2094C63.9411 74.5133 64.0853 74.9509 64.0853 75.5264V77.9658H63.4603V75.6277C63.4603 75.2184 63.3642 74.9023 63.1756 74.6835C62.9907 74.4647 62.7355 74.3553 62.4138 74.3553C62.0921 74.3553 61.8147 74.4687 61.6188 74.6916C61.4228 74.9185 61.3266 75.2468 61.3266 75.6803V77.9699H60.7017V73.8325H61.3266V74.4241C61.4486 74.2094 61.6151 74.0473 61.8258 73.9338C62.0403 73.8163 62.2807 73.7555 62.5432 73.7555V73.7515Z" fill="white"/>
<path d="M68.4599 78.0144C68.1455 78.0144 67.8645 77.9536 67.613 77.828C67.3616 77.7064 67.1619 77.5362 67.0214 77.3214C66.8808 77.1026 66.8106 76.8473 66.8069 76.5596H67.4762C67.4947 76.8068 67.5871 77.0175 67.7536 77.1837C67.9163 77.3498 68.1529 77.4268 68.4636 77.4268C68.7742 77.4268 69.0035 77.3458 69.1736 77.1837C69.3474 77.0216 69.4361 76.8109 69.4361 76.5596C69.4361 76.357 69.3843 76.1949 69.2808 76.0693C69.1773 75.9396 69.0478 75.8464 68.8962 75.7816C68.7446 75.7127 68.5449 75.6438 68.2861 75.5709C67.968 75.4817 67.7129 75.3926 67.5243 75.2994C67.332 75.2062 67.173 75.0603 67.0399 74.8698C66.9067 74.6753 66.8402 74.4119 66.8402 74.0837C66.8402 73.796 66.903 73.5447 67.0325 73.3218C67.1656 73.103 67.3505 72.9328 67.5945 72.8153C67.8349 72.6937 68.1123 72.6289 68.4266 72.6289C68.8777 72.6289 69.2438 72.7545 69.5286 73.0017C69.817 73.2449 69.9797 73.5731 70.0204 73.9824H69.3252C69.303 73.7798 69.2105 73.6015 69.0404 73.4515C68.8703 73.3016 68.6448 73.2246 68.3637 73.2246C68.1012 73.2246 67.8867 73.2975 67.724 73.4434C67.5576 73.5893 67.4762 73.8 67.4762 74.0675C67.4762 74.2579 67.5243 74.416 67.6241 74.5416C67.7203 74.6591 67.8423 74.7523 67.9865 74.8131C68.1307 74.8779 68.3341 74.9468 68.5967 75.0238C68.9147 75.1211 69.1699 75.2143 69.3585 75.3115C69.5544 75.4007 69.7209 75.5465 69.8577 75.7411C69.9982 75.9315 70.0648 76.1949 70.0648 76.5272C70.0648 76.7865 70.0019 77.0297 69.8799 77.2526C69.7578 77.4795 69.5729 77.6618 69.3252 77.7996C69.0811 77.9414 68.7964 78.0103 68.4636 78.0103L68.4599 78.0144Z" fill="white"/>
<path d="M72.6311 78.0304C72.2761 78.0304 71.9543 77.9453 71.6696 77.767C71.3812 77.5887 71.1556 77.3374 70.9929 77.0173C70.8265 76.6931 70.7451 76.3163 70.7451 75.8867C70.7451 75.4572 70.8302 75.0925 71.0003 74.7723C71.1704 74.4482 71.396 74.1969 71.6844 74.0227C71.9728 73.8484 72.2945 73.7593 72.6569 73.7593C73.0193 73.7593 73.3374 73.8484 73.6295 74.0227C73.9179 74.1969 74.1472 74.4441 74.3136 74.7642C74.48 75.0844 74.5688 75.4612 74.5688 75.8867C74.5688 76.3122 74.48 76.6931 74.3062 77.0173C74.1361 77.3374 73.9031 77.5887 73.6036 77.767C73.3115 77.9412 72.9861 78.0304 72.6311 78.0304ZM72.6311 77.4306C72.8492 77.4306 73.06 77.3699 73.256 77.2523C73.4557 77.1348 73.6184 76.9606 73.7404 76.7296C73.8625 76.4986 73.9253 76.219 73.9253 75.8867C73.9253 75.5544 73.8625 75.2748 73.7404 75.0438C73.6221 74.8129 73.4668 74.6427 73.2708 74.5292C73.0785 74.4157 72.8714 74.359 72.6459 74.359C72.4203 74.359 72.2021 74.4157 72.0135 74.5292C71.8212 74.6427 71.6696 74.8129 71.5587 75.0438C71.444 75.2748 71.3886 75.5585 71.3886 75.8867C71.3886 76.215 71.444 76.5108 71.5513 76.7377C71.6622 76.9687 71.8138 77.1429 72.0061 77.2604C72.1947 77.3739 72.4018 77.4306 72.6311 77.4306Z" fill="white"/>
<path d="M76.0109 72.3735V77.9616H75.386V72.3735H76.0109Z" fill="white"/>
<path d="M80.4227 73.8286V77.966H79.7977V77.3581C79.6794 77.5689 79.513 77.731 79.2985 77.8485C79.0877 77.966 78.8547 78.0268 78.5959 78.0268C78.2964 78.0268 78.0301 77.9619 77.7934 77.8323C77.5605 77.6985 77.3756 77.5 77.2387 77.2325C77.1056 76.961 77.0391 76.6368 77.0391 76.2519V73.8286H77.664V76.1587C77.664 76.572 77.7565 76.884 77.9414 77.1029C78.13 77.3217 78.3888 77.4311 78.7179 77.4311C79.047 77.4311 79.3133 77.3176 79.5056 77.0947C79.7016 76.8638 79.7977 76.5315 79.7977 76.0979V73.8286H80.4227Z" fill="white"/>
<path d="M82.2457 74.3915V76.8309C82.2457 77.0336 82.2827 77.1754 82.3604 77.2605C82.438 77.3415 82.5711 77.378 82.7671 77.378H83.2294V77.9615H82.6673C82.316 77.9615 82.0534 77.8764 81.8796 77.6981C81.7058 77.5198 81.6171 77.2281 81.6171 76.8269V74.3874H81.1252V73.8201H81.6171V72.7827H82.242V73.8201H83.2294V74.3874H82.242L82.2457 74.3915Z" fill="white"/>
<path d="M84.3128 73.1596C84.1944 73.1596 84.0909 73.115 84.0058 73.0258C83.9245 72.9326 83.8838 72.8192 83.8838 72.6895C83.8838 72.5598 83.9245 72.4504 84.0058 72.3613C84.0909 72.2721 84.1944 72.2275 84.3128 72.2275C84.4237 72.2275 84.5198 72.2721 84.5975 72.3613C84.6788 72.4504 84.7195 72.5598 84.7195 72.6895C84.7195 72.8192 84.6788 72.9326 84.5975 73.0258C84.5198 73.115 84.4237 73.1596 84.3128 73.1596ZM84.6123 73.8282V77.9656H83.9873V73.8282H84.6123Z" fill="white"/>
<path d="M87.3303 78.0304C86.9753 78.0304 86.6536 77.9453 86.3688 77.767C86.0804 77.5887 85.8548 77.3374 85.6921 77.0173C85.5257 76.6931 85.4443 76.3163 85.4443 75.8867C85.4443 75.4572 85.5294 75.0925 85.6995 74.7723C85.8696 74.4482 86.0952 74.1969 86.3836 74.0227C86.6721 73.8484 86.9938 73.7593 87.3562 73.7593C87.7186 73.7593 88.0366 73.8484 88.3287 74.0227C88.6172 74.1969 88.8464 74.4441 89.0128 74.7642C89.1793 75.0844 89.268 75.4612 89.268 75.8867C89.268 76.3122 89.1792 76.6931 89.0054 77.0173C88.8353 77.3374 88.6024 77.5887 88.3028 77.767C88.0107 77.9412 87.6853 78.0304 87.3303 78.0304ZM87.3303 77.4306C87.5485 77.4306 87.7592 77.3699 87.9552 77.2523C88.1549 77.1348 88.3176 76.9606 88.4397 76.7296C88.5617 76.4986 88.6246 76.219 88.6246 75.8867C88.6246 75.5544 88.5617 75.2748 88.4397 75.0438C88.3213 74.8129 88.166 74.6427 87.97 74.5292C87.7777 74.4157 87.5706 74.359 87.3451 74.359C87.1195 74.359 86.9013 74.4157 86.7127 74.5292C86.5204 74.6427 86.3688 74.8129 86.2579 75.0438C86.1432 75.2748 86.0878 75.5585 86.0878 75.8867C86.0878 76.215 86.1432 76.5108 86.2505 76.7377C86.3614 76.9687 86.513 77.1429 86.7053 77.2604C86.8939 77.3739 87.101 77.4306 87.3303 77.4306Z" fill="white"/>
<path d="M91.9268 73.7515C92.3816 73.7515 92.7514 73.9055 93.0362 74.2094C93.3246 74.5133 93.4688 74.9509 93.4688 75.5264V77.9658H92.8439V75.6277C92.8439 75.2184 92.7477 74.9023 92.5591 74.6835C92.3742 74.4647 92.1191 74.3553 91.7973 74.3553C91.4756 74.3553 91.1983 74.4687 91.0023 74.6916C90.8063 74.9185 90.7102 75.2468 90.7102 75.6803V77.9699H90.0852V73.8325H90.7102V74.4241C90.8322 74.2094 90.9986 74.0473 91.2094 73.9338C91.4239 73.8163 91.6642 73.7555 91.9268 73.7555V73.7515Z" fill="white"/>
<path d="M95.8245 78.0305C95.536 78.0305 95.2772 77.9738 95.0479 77.8684C94.8223 77.7631 94.6411 77.6131 94.508 77.4227C94.3749 77.2282 94.3009 77.0012 94.2861 76.746H94.9333C94.9518 76.9567 95.0405 77.1228 95.1958 77.2525C95.3548 77.3822 95.5619 77.447 95.8208 77.447C96.0611 77.447 96.2534 77.3903 96.3903 77.2768C96.5308 77.1593 96.5973 77.0134 96.5973 76.8392C96.5973 76.6649 96.5234 76.5231 96.3755 76.4339C96.2238 76.3448 95.9983 76.2556 95.6913 76.1705C95.414 76.0935 95.1847 76.0084 95.0072 75.9274C94.8334 75.8423 94.6781 75.7207 94.5524 75.5546C94.4304 75.3925 94.3675 75.1777 94.3675 74.9143C94.3675 74.6996 94.423 74.505 94.5376 74.3308C94.6559 74.1565 94.8186 74.0188 95.0294 73.9175C95.2402 73.8121 95.4806 73.7554 95.7542 73.7554C96.1721 73.7554 96.5049 73.8729 96.7638 74.0998C97.0189 74.3308 97.1594 74.6469 97.1816 75.0521H96.5493C96.5382 74.8333 96.4605 74.659 96.3089 74.5294C96.1647 74.3997 95.9724 74.3348 95.732 74.3348C95.5065 74.3348 95.3253 74.3916 95.1921 74.4969C95.059 74.5982 94.9924 74.736 94.9924 74.9103C94.9924 75.044 95.0294 75.1575 95.1071 75.2466C95.1884 75.3317 95.292 75.4047 95.414 75.4573C95.536 75.51 95.7061 75.5667 95.9243 75.6356C96.1943 75.7167 96.4161 75.7937 96.5862 75.8707C96.7564 75.9517 96.8969 76.0692 97.0189 76.2273C97.1409 76.3812 97.2075 76.5839 97.2112 76.8351C97.2112 77.062 97.152 77.2646 97.0337 77.4429C96.9191 77.6253 96.76 77.7671 96.5493 77.8725C96.3422 77.9738 96.1055 78.0265 95.8319 78.0265L95.8245 78.0305Z" fill="white"/>
<path d="M101.438 78.0144C101.124 78.0144 100.843 77.9536 100.591 77.828C100.34 77.7064 100.14 77.5362 99.9994 77.3214C99.8589 77.1026 99.7886 76.8473 99.7849 76.5596H100.454C100.473 76.8068 100.565 77.0175 100.732 77.1837C100.894 77.3498 101.131 77.4268 101.442 77.4268C101.752 77.4268 101.981 77.3458 102.152 77.1837C102.325 77.0216 102.414 76.8109 102.414 76.5596C102.414 76.357 102.362 76.1949 102.259 76.0693C102.155 75.9396 102.026 75.8464 101.874 75.7816C101.723 75.7127 101.523 75.6438 101.264 75.5709C100.946 75.4817 100.691 75.3926 100.502 75.2994C100.31 75.2062 100.151 75.0603 100.018 74.8698C99.8848 74.6753 99.8182 74.4119 99.8182 74.0837C99.8182 73.796 99.8811 73.5447 100.01 73.3218C100.144 73.103 100.329 72.9328 100.573 72.8153C100.813 72.6937 101.09 72.6289 101.405 72.6289C101.856 72.6289 102.222 72.7545 102.507 73.0017C102.795 73.2449 102.958 73.5731 102.998 73.9824H102.303C102.281 73.7798 102.189 73.6015 102.018 73.4515C101.848 73.3016 101.623 73.2246 101.342 73.2246C101.079 73.2246 100.865 73.2975 100.702 73.4434C100.536 73.5893 100.454 73.8 100.454 74.0675C100.454 74.2579 100.502 74.416 100.602 74.5416C100.698 74.6591 100.82 74.7523 100.965 74.8131C101.109 74.8779 101.312 74.9468 101.575 75.0238C101.893 75.1211 102.148 75.2143 102.336 75.3115C102.532 75.4007 102.699 75.5465 102.836 75.7411C102.976 75.9315 103.043 76.1949 103.043 76.5272C103.043 76.7865 102.98 77.0297 102.858 77.2526C102.736 77.4795 102.551 77.6618 102.303 77.7996C102.059 77.9414 101.774 78.0103 101.442 78.0103L101.438 78.0144Z" fill="white"/>
<path d="M103.719 75.8786C103.719 75.4572 103.797 75.0884 103.952 74.7723C104.111 74.4522 104.326 74.205 104.6 74.0308C104.877 73.8525 105.18 73.7593 105.517 73.7593C105.853 73.7593 106.131 73.8403 106.371 73.9943C106.619 74.1483 106.8 74.3387 106.918 74.5778V73.8282H107.558V77.9655H106.918V77.1956C106.796 77.4387 106.611 77.6373 106.364 77.7953C106.116 77.9534 105.831 78.0304 105.509 78.0304C105.188 78.0304 104.873 77.9412 104.6 77.7589C104.326 77.5806 104.111 77.3253 103.952 76.997C103.797 76.6648 103.719 76.2919 103.719 75.8746V75.8786ZM106.918 75.8867C106.918 75.5787 106.859 75.3072 106.748 75.0763C106.633 74.8412 106.482 74.6629 106.286 74.5454C106.09 74.4239 105.875 74.359 105.639 74.359C105.402 74.359 105.188 74.4239 104.992 74.5454C104.799 74.6629 104.648 74.8372 104.537 75.0682C104.422 75.2991 104.367 75.5706 104.367 75.8786C104.367 76.1866 104.422 76.4784 104.537 76.7134C104.648 76.9444 104.799 77.1227 104.992 77.2442C105.188 77.3698 105.402 77.4306 105.639 77.4306C105.875 77.4306 106.09 77.3698 106.286 77.2442C106.482 77.1227 106.633 76.9444 106.748 76.7134C106.859 76.4784 106.918 76.2028 106.918 75.8867Z" fill="white"/>
<path d="M111.955 73.8286V77.966H111.33V77.3581C111.212 77.5689 111.045 77.731 110.831 77.8485C110.62 77.966 110.387 78.0268 110.128 78.0268C109.829 78.0268 109.562 77.9619 109.326 77.8323C109.093 77.6985 108.908 77.5 108.771 77.2325C108.638 76.961 108.571 76.6368 108.571 76.2519V73.8286H109.196V76.1587C109.196 76.572 109.289 76.884 109.474 77.1029C109.662 77.3217 109.921 77.4311 110.25 77.4311C110.579 77.4311 110.846 77.3176 111.038 77.0947C111.234 76.8638 111.33 76.5315 111.33 76.0979V73.8286H111.955Z" fill="white"/>
<path d="M112.776 75.8788C112.776 75.4573 112.854 75.0886 113.009 74.7725C113.168 74.4524 113.382 74.2052 113.656 74.0309C113.933 73.8526 114.24 73.7594 114.58 73.7594C114.873 73.7594 115.146 73.8364 115.398 73.9863C115.649 74.1322 115.841 74.3267 115.975 74.5699V72.3735H116.614V77.9616H115.975V77.1836C115.853 77.4308 115.668 77.6334 115.42 77.7914C115.176 77.9495 114.895 78.0265 114.573 78.0265C114.251 78.0265 113.933 77.9373 113.656 77.755C113.382 77.5767 113.168 77.3214 113.009 76.9931C112.854 76.6608 112.776 76.288 112.776 75.8706V75.8788ZM115.975 75.8869C115.975 75.5789 115.915 75.3074 115.804 75.0764C115.69 74.8414 115.538 74.6631 115.342 74.5456C115.146 74.424 114.932 74.3591 114.695 74.3591C114.458 74.3591 114.244 74.424 114.048 74.5456C113.856 74.6631 113.704 74.8373 113.593 75.0683C113.478 75.2993 113.423 75.5708 113.423 75.8788C113.423 76.1867 113.478 76.4785 113.593 76.7135C113.704 76.9445 113.856 77.1228 114.048 77.2444C114.244 77.37 114.458 77.4308 114.695 77.4308C114.932 77.4308 115.146 77.37 115.342 77.2444C115.538 77.1228 115.69 76.9445 115.804 76.7135C115.915 76.4785 115.975 76.2029 115.975 75.8869Z" fill="white"/>
<path d="M117.99 73.1596C117.872 73.1596 117.768 73.115 117.683 73.0258C117.602 72.9326 117.561 72.8192 117.561 72.6895C117.561 72.5598 117.602 72.4504 117.683 72.3613C117.768 72.2721 117.872 72.2275 117.99 72.2275C118.101 72.2275 118.197 72.2721 118.275 72.3613C118.356 72.4504 118.397 72.5598 118.397 72.6895C118.397 72.8192 118.356 72.9326 118.275 73.0258C118.197 73.115 118.101 73.1596 117.99 73.1596ZM118.29 73.8282V77.9656H117.665V73.8282H118.29Z" fill="white"/>
<path d="M120.959 75.332C120.959 74.8214 121.063 74.3594 121.274 73.9461C121.488 73.5368 121.777 73.2167 122.143 72.9817C122.505 72.7507 122.912 72.6372 123.359 72.6372C123.877 72.6372 124.332 72.775 124.724 73.0505C125.112 73.3261 125.397 73.7192 125.578 74.2257H124.831C124.698 73.9096 124.502 73.6665 124.254 73.5003C124.003 73.3261 123.703 73.2369 123.359 73.2369C123.016 73.2369 122.716 73.3261 122.45 73.5003C122.187 73.6705 121.98 73.9137 121.825 74.2257C121.673 74.5418 121.603 74.9105 121.603 75.332C121.603 75.7534 121.677 76.1141 121.825 76.4301C121.98 76.7462 122.187 76.9934 122.45 77.1636C122.716 77.3338 123.019 77.4189 123.359 77.4189C123.7 77.4189 123.999 77.3338 124.254 77.1636C124.506 76.9934 124.698 76.7543 124.831 76.4382H125.578C125.397 76.9407 125.112 77.3297 124.724 77.6053C124.332 77.8768 123.877 78.0105 123.359 78.0105C122.912 78.0105 122.505 77.8971 122.143 77.6742C121.777 77.4432 121.488 77.1271 121.274 76.7219C121.063 76.3126 120.959 75.8507 120.959 75.336V75.332Z" fill="white"/>
<path d="M128.159 78.0304C127.804 78.0304 127.482 77.9453 127.198 77.767C126.909 77.5887 126.684 77.3374 126.521 77.0173C126.355 76.6931 126.273 76.3163 126.273 75.8867C126.273 75.4572 126.358 75.0925 126.528 74.7723C126.698 74.4482 126.924 74.1969 127.212 74.0227C127.501 73.8484 127.823 73.7593 128.185 73.7593C128.547 73.7593 128.865 73.8484 129.158 74.0227C129.446 74.1969 129.675 74.4441 129.842 74.7642C130.008 75.0844 130.097 75.4612 130.097 75.8867C130.097 76.3122 130.008 76.6931 129.834 77.0173C129.664 77.3374 129.431 77.5887 129.132 77.767C128.84 77.9412 128.514 78.0304 128.159 78.0304ZM128.159 77.4306C128.377 77.4306 128.588 77.3699 128.784 77.2523C128.984 77.1348 129.146 76.9606 129.269 76.7296C129.391 76.4986 129.453 76.219 129.453 75.8867C129.453 75.5544 129.391 75.2748 129.269 75.0438C129.15 74.8129 128.995 74.6427 128.799 74.5292C128.607 74.4157 128.399 74.359 128.174 74.359C127.948 74.359 127.73 74.4157 127.542 74.5292C127.349 74.6427 127.198 74.8129 127.087 75.0438C126.972 75.2748 126.917 75.5585 126.917 75.8867C126.917 76.215 126.972 76.5108 127.079 76.7377C127.19 76.9687 127.342 77.1429 127.534 77.2604C127.723 77.3739 127.93 77.4306 128.159 77.4306Z" fill="white"/>
<path d="M131.539 74.5011C131.65 74.2661 131.809 74.0838 132.009 73.9541C132.212 73.8204 132.464 73.7515 132.756 73.7515V74.4606H132.593C131.887 74.4606 131.539 74.8821 131.539 75.7168V77.9618H130.914V73.8244H131.539V74.5011Z" fill="white"/>
<path d="M134.105 74.5859C134.227 74.3509 134.412 74.1523 134.66 73.9943C134.908 73.8363 135.193 73.7593 135.514 73.7593C135.836 73.7593 136.158 73.8484 136.431 74.0308C136.701 74.205 136.916 74.4522 137.071 74.7723C137.23 75.0884 137.312 75.4572 137.312 75.8786C137.312 76.3001 137.23 76.6688 137.071 77.0011C136.916 77.3293 136.705 77.5806 136.431 77.7629C136.158 77.9453 135.855 78.0344 135.514 78.0344C135.196 78.0344 134.912 77.9574 134.668 77.7994C134.42 77.6414 134.231 77.4428 134.105 77.2078V79.9268H133.48V73.8322H134.105V74.594V74.5859ZM136.672 75.8786C136.672 75.5706 136.613 75.2991 136.494 75.0682C136.38 74.8372 136.228 74.6629 136.032 74.5454C135.836 74.4239 135.622 74.359 135.385 74.359C135.148 74.359 134.949 74.4239 134.753 74.5454C134.557 74.6629 134.401 74.8412 134.283 75.0763C134.165 75.3113 134.105 75.5828 134.105 75.8867C134.105 76.1906 134.165 76.4784 134.283 76.7134C134.401 76.9444 134.557 77.1227 134.753 77.2442C134.949 77.3698 135.156 77.4306 135.385 77.4306C135.614 77.4306 135.836 77.3698 136.032 77.2442C136.228 77.1227 136.38 76.9444 136.494 76.7134C136.613 76.4784 136.672 76.1987 136.672 75.8786Z" fill="white"/>
<path d="M138.332 78.0064C138.214 78.0064 138.11 77.9619 138.025 77.8727C137.944 77.7836 137.903 77.6742 137.903 77.5445C137.903 77.4148 137.944 77.3054 138.025 77.2162C138.11 77.1271 138.214 77.0825 138.332 77.0825C138.443 77.0825 138.539 77.1271 138.617 77.2162C138.698 77.3054 138.739 77.4148 138.739 77.5445C138.739 77.6742 138.698 77.7836 138.617 77.8727C138.539 77.9619 138.443 78.0064 138.332 78.0064Z" fill="white"/>
</g>
<defs>
<clipPath id="clip0_178_337">
<rect width="140" height="80" fill="white"/>
</clipPath>
</defs>
</svg>
