<svg width="133" height="70" viewBox="0 0 133 70" fill="none" xmlns="http://www.w3.org/2000/svg">
<g clip-path="url(#clip0_178_277)">
<mask id="mask0_178_277" style="mask-type:luminance" maskUnits="userSpaceOnUse" x="0" y="0" width="133" height="59">
<path d="M132.897 0H0V58.4338H132.897V0Z" fill="white"/>
</mask>
<g mask="url(#mask0_178_277)">
<path d="M0 0H132.816V58.4338H0V0Z" fill="#214080"/>
</g>
<mask id="mask1_178_277" style="mask-type:luminance" maskUnits="userSpaceOnUse" x="0" y="0" width="44" height="58">
<path d="M43.3644 0.946716H0.86853V57.4835H43.3644V0.946716Z" fill="white"/>
</mask>
<g mask="url(#mask1_178_277)">
<path d="M0.86853 0.946716H43.3644V57.5651H0.86853V0.946716Z" fill="white"/>
</g>
<mask id="mask2_178_277" style="mask-type:luminance" maskUnits="userSpaceOnUse" x="5" y="11" width="34" height="36">
<path d="M38.4299 11.9172H5.92346V46.5627H38.4299V11.9172Z" fill="white"/>
</mask>
<g mask="url(#mask2_178_277)">
<mask id="mask3_178_277" style="mask-type:luminance" maskUnits="userSpaceOnUse" x="5" y="11" width="34" height="36">
<path d="M36.4769 11.9171C31.1844 14.0941 26.1755 14.8175 21.8614 14.8175C13.3041 14.8175 7.45154 11.9702 7.45154 11.9702L5.92725 15.5337C9.94004 17.108 13.7614 17.9803 17.285 18.3809C17.838 23.2209 17.9408 33.6454 10.9751 44.0273L14.0237 46.5128C14.0237 46.5128 22.6449 35.6132 21.117 18.6398L23.0986 18.6469C21.5672 35.6132 30.1919 46.5128 30.1919 46.5128L33.2405 44.0273C26.2961 33.656 26.3918 23.2422 26.9412 18.3951C33.9246 17.6186 38.3061 15.399 38.3061 15.399L36.4769 11.9135V11.9171Z" fill="white"/>
</mask>
<g mask="url(#mask3_178_277)">
<path d="M5.92346 11.9172H38.3023V46.4563H5.92346V11.9172Z" fill="#1A9FD3"/>
</g>
</g>
<path d="M2.81103 63.6177C3.31441 63.6177 3.74688 63.7134 4.112 63.8978C4.48067 64.0857 4.76426 64.3552 4.96277 64.7027C5.15774 65.0466 5.25699 65.4579 5.25699 65.9295C5.25699 66.4011 5.15774 66.8053 4.96277 67.1563C4.76426 67.5003 4.48421 67.7662 4.112 67.947C3.74688 68.1314 3.31441 68.22 2.81103 68.22H1.37891V63.6177H2.81103ZM2.81103 67.7236C3.40657 67.7236 3.86032 67.5676 4.16872 67.2521C4.48067 66.9365 4.6331 66.4968 4.6331 65.9295C4.6331 65.3622 4.47358 64.9154 4.16163 64.5928C3.84968 64.2665 3.39948 64.1034 2.81103 64.1034H1.97799V67.7236H2.81103Z" fill="#214080"/>
<path d="M6.35237 64.0148C6.23893 64.0148 6.13967 63.9758 6.05814 63.8978C5.98016 63.8162 5.94116 63.717 5.94116 63.6035C5.94116 63.49 5.98016 63.3943 6.05814 63.3163C6.13967 63.2383 6.23893 63.1993 6.35237 63.1993C6.45871 63.1993 6.55088 63.2383 6.62532 63.3163C6.70331 63.3943 6.7423 63.49 6.7423 63.6035C6.7423 63.717 6.70331 63.8162 6.62532 63.8978C6.55088 63.9758 6.45871 64.0148 6.35237 64.0148ZM6.6395 64.5998V68.22H6.04042V64.5998H6.6395Z" fill="#214080"/>
<path d="M9.15639 64.5396C9.46834 64.5396 9.74129 64.6105 9.97526 64.7452C10.2128 64.88 10.3865 65.0466 10.4999 65.2558V64.5998H11.1132V68.3016C11.1132 68.6313 11.0423 68.9256 10.9005 69.1809C10.7551 69.4362 10.5566 69.6348 10.2943 69.7802C10.032 69.9291 9.72712 70.0035 9.37972 70.0035C8.90825 70.0035 8.51122 69.8901 8.19219 69.6632C7.87669 69.4398 7.68882 69.1384 7.6321 68.7554H8.23118C8.29499 68.9717 8.42969 69.1455 8.63884 69.2802C8.84444 69.4185 9.09258 69.4859 9.38326 69.4859C9.71294 69.4859 9.98235 69.383 10.1879 69.1738C10.3971 68.9682 10.507 68.6739 10.507 68.3016V67.5393C10.39 67.752 10.2128 67.9293 9.97526 68.0711C9.74129 68.2094 9.47188 68.2768 9.16348 68.2768C8.85508 68.2768 8.55022 68.1988 8.28435 68.0392C8.02203 67.8832 7.81643 67.6598 7.664 67.3726C7.51512 67.0819 7.44067 66.7556 7.44067 66.3904C7.44067 66.0252 7.51512 65.699 7.664 65.4224C7.81643 65.1423 8.02203 64.926 8.28435 64.7736C8.55022 64.6176 8.8409 64.536 9.16348 64.536L9.15639 64.5396ZM10.4999 66.4011C10.4999 66.1316 10.4432 65.894 10.3368 65.6919C10.2269 65.4863 10.0816 65.3303 9.89372 65.2274C9.70585 65.1211 9.50024 65.0643 9.27337 65.0643C9.0465 65.0643 8.8409 65.1211 8.65302 65.2274C8.46869 65.3303 8.32335 65.4827 8.217 65.6848C8.10711 65.8869 8.05394 66.1245 8.05394 66.394C8.05394 66.6635 8.10711 66.9187 8.217 67.1244C8.32335 67.3265 8.46869 67.4825 8.65302 67.5889C8.8409 67.6988 9.0465 67.752 9.27337 67.752C9.50024 67.752 9.70585 67.6988 9.89372 67.5889C10.0816 67.4825 10.2269 67.3265 10.3368 67.1244C10.4432 66.9187 10.4999 66.6776 10.4999 66.4011Z" fill="#214080"/>
<path d="M12.4354 64.0148C12.3219 64.0148 12.2227 63.9758 12.1412 63.8978C12.0632 63.8162 12.0242 63.717 12.0242 63.6035C12.0242 63.49 12.0632 63.3943 12.1412 63.3163C12.2227 63.2383 12.3219 63.1993 12.4354 63.1993C12.5417 63.1993 12.6339 63.2383 12.7083 63.3163C12.7863 63.3943 12.8253 63.49 12.8253 63.6035C12.8253 63.717 12.7863 63.8162 12.7083 63.8978C12.6339 63.9758 12.5417 64.0148 12.4354 64.0148ZM12.7225 64.5998V68.22H12.1234V64.5998H12.7225Z" fill="#214080"/>
<path d="M14.4773 65.0927V67.2273C14.4773 67.4045 14.5127 67.5286 14.5872 67.6031C14.6616 67.674 14.7892 67.7059 14.9771 67.7059H15.4202V68.2165H14.8814C14.5446 68.2165 14.293 68.1421 14.1264 67.986C13.9597 67.83 13.8747 67.5747 13.8747 67.2237V65.0892H13.4032V64.5928H13.8747V63.6851H14.4737V64.5928H15.4202V65.0892H14.4737L14.4773 65.0927Z" fill="#214080"/>
<path d="M15.92 66.394C15.92 66.0252 15.9945 65.7026 16.1434 65.426C16.2958 65.1459 16.5014 64.9296 16.7637 64.7771C17.0296 64.6211 17.3203 64.5396 17.6429 64.5396C17.9654 64.5396 18.2313 64.6105 18.4617 64.7452C18.6992 64.8799 18.8729 65.0466 18.9864 65.2558V64.5998H19.5996V68.22H18.9864V67.5463C18.8694 67.7591 18.6921 67.9328 18.4546 68.0711C18.2171 68.2094 17.9442 68.2768 17.6358 68.2768C17.3274 68.2768 17.026 68.1988 16.7637 68.0392C16.5014 67.8832 16.2958 67.6598 16.1434 67.3726C15.9945 67.0818 15.92 66.7556 15.92 66.3904V66.394ZM18.9864 66.4011C18.9864 66.1316 18.9296 65.894 18.8233 65.6919C18.7134 65.4863 18.5681 65.3303 18.3802 65.2274C18.1923 65.1211 17.9867 65.0643 17.7598 65.0643C17.533 65.0643 17.3274 65.1211 17.1395 65.2274C16.9551 65.3303 16.8098 65.4827 16.7035 65.6848C16.5936 65.8869 16.5404 66.1245 16.5404 66.394C16.5404 66.6634 16.5936 66.9187 16.7035 67.1244C16.8098 67.3265 16.9551 67.4825 17.1395 67.5889C17.3274 67.6988 17.533 67.752 17.7598 67.752C17.9867 67.752 18.1923 67.6988 18.3802 67.5889C18.5681 67.4825 18.7134 67.3265 18.8233 67.1244C18.9296 66.9187 18.9864 66.6776 18.9864 66.4011Z" fill="#214080"/>
<path d="M21.2054 63.3269V68.2165H20.6063V63.3269H21.2054Z" fill="#214080"/>
<path d="M24.5908 63.6177V68.22H23.9917V63.6177H24.5908Z" fill="#214080"/>
<path d="M27.3806 64.5325C27.8166 64.5325 28.1711 64.6672 28.444 64.9331C28.7205 65.1991 28.8588 65.582 28.8588 66.0855V68.22H28.2597V66.1742C28.2597 65.816 28.1675 65.5395 27.9868 65.348C27.8095 65.1565 27.5649 65.0608 27.2565 65.0608C26.9481 65.0608 26.6822 65.1601 26.4944 65.3551C26.3065 65.5536 26.2143 65.8408 26.2143 66.2202V68.2236H25.6152V64.6034H26.2143V65.1211C26.3313 64.9331 26.4908 64.7913 26.6929 64.692C26.8985 64.5892 27.1289 64.536 27.3806 64.536V64.5325Z" fill="#214080"/>
<path d="M31.3047 65.0927H30.5426V68.2165H29.9435V65.0927H29.4791V64.5963H29.9435V64.3374C29.9435 63.9332 30.0463 63.6389 30.2555 63.451C30.4646 63.2631 30.8049 63.1709 31.2657 63.1709V63.6744C30.9999 63.6744 30.812 63.7276 30.7057 63.8304C30.5958 63.9332 30.5426 64.1034 30.5426 64.341V64.5998H31.3047V65.0962V65.0927Z" fill="#214080"/>
<path d="M33.5877 68.2768C33.2474 68.2768 32.939 68.2023 32.666 68.0463C32.3895 67.8903 32.1733 67.6704 32.0173 67.3903C31.8578 67.1067 31.7798 66.7769 31.7798 66.4011C31.7798 66.0252 31.8613 65.7061 32.0244 65.426C32.1874 65.1423 32.4037 64.9225 32.6802 64.77C32.9567 64.6176 33.2651 64.5396 33.6125 64.5396C33.9599 64.5396 34.2647 64.6176 34.5448 64.77C34.8213 64.9225 35.0411 65.1388 35.2006 65.4189C35.3601 65.699 35.4452 66.0288 35.4452 66.4011C35.4452 66.7734 35.3601 67.1067 35.1935 67.3903C35.0304 67.6704 34.8071 67.8903 34.52 68.0463C34.2399 68.1988 33.928 68.2768 33.5877 68.2768ZM33.5877 67.752C33.7968 67.752 33.9989 67.6988 34.1868 67.596C34.3782 67.4932 34.5341 67.3407 34.6511 67.1386C34.7681 66.9365 34.8284 66.6918 34.8284 66.4011C34.8284 66.1103 34.7681 65.8657 34.6511 65.6635C34.5377 65.4614 34.3888 65.3125 34.2009 65.2132C34.0166 65.114 33.8181 65.0643 33.6018 65.0643C33.3856 65.0643 33.1765 65.114 32.9957 65.2132C32.8113 65.3125 32.666 65.4614 32.5597 65.6635C32.4498 65.8657 32.3966 66.1139 32.3966 66.4011C32.3966 66.6883 32.4498 66.9471 32.5526 67.1457C32.6589 67.3478 32.8043 67.5002 32.9886 67.6031C33.1694 67.7024 33.3679 67.752 33.5877 67.752Z" fill="#214080"/>
<path d="M36.8276 65.1884C36.9339 64.9828 37.0864 64.8232 37.2778 64.7098C37.4728 64.5927 37.7138 64.5325 37.9939 64.5325V65.153H37.8379C37.1608 65.153 36.8276 65.5217 36.8276 66.2522V68.2165H36.2285V64.5963H36.8276V65.1884Z" fill="#214080"/>
<path d="M43.0383 64.5325C43.3183 64.5325 43.57 64.5927 43.7933 64.7098C44.0167 64.8268 44.1868 65.0041 44.3109 65.2345C44.4385 65.4685 44.5023 65.7487 44.5023 66.0855V68.22H43.9103V66.1741C43.9103 65.816 43.8217 65.5395 43.6445 65.348C43.4672 65.1565 43.2262 65.0608 42.9213 65.0608C42.6164 65.0608 42.3541 65.1636 42.1662 65.3622C41.9819 65.5607 41.8933 65.8479 41.8933 66.2273V68.2236H41.3013V66.1777C41.3013 65.8196 41.2091 65.543 41.0283 65.3515C40.8511 65.1601 40.61 65.0643 40.3123 65.0643C39.9968 65.0643 39.7451 65.1672 39.5572 65.3657C39.3729 65.5643 39.2843 65.8515 39.2843 66.2309V68.2271H38.6852V64.6069H39.2843V65.1317C39.4012 64.9402 39.5608 64.7949 39.7628 64.6956C39.9649 64.5928 40.1847 64.5396 40.4293 64.5396C40.7341 64.5396 41 64.6105 41.2339 64.7452C41.4644 64.8835 41.6416 65.0821 41.7586 65.3444C41.8578 65.0891 42.0209 64.8906 42.2549 64.7523C42.4924 64.6105 42.7511 64.5396 43.0383 64.5396V64.5325Z" fill="#214080"/>
<path d="M45.2538 66.394C45.2538 66.0252 45.3282 65.7026 45.4771 65.426C45.6295 65.1459 45.8351 64.9296 46.0975 64.7771C46.3633 64.6211 46.654 64.5396 46.9766 64.5396C47.2992 64.5396 47.565 64.6105 47.7955 64.7452C48.033 64.8799 48.2067 65.0466 48.3201 65.2558V64.5998H48.9334V68.22H48.3201V67.5463C48.2031 67.7591 48.0259 67.9328 47.7884 68.0711C47.5509 68.2094 47.2779 68.2768 46.9695 68.2768C46.6611 68.2768 46.3598 68.1988 46.0975 68.0392C45.8351 67.8832 45.6295 67.6598 45.4771 67.3726C45.3282 67.0818 45.2538 66.7556 45.2538 66.3904V66.394ZM48.3201 66.4011C48.3201 66.1316 48.2634 65.894 48.157 65.6919C48.0471 65.4863 47.9018 65.3303 47.7139 65.2274C47.526 65.1211 47.3204 65.0643 47.0936 65.0643C46.8667 65.0643 46.6611 65.1211 46.4732 65.2274C46.2889 65.3303 46.1435 65.4827 46.0372 65.6848C45.9273 65.8869 45.8741 66.1245 45.8741 66.394C45.8741 66.6634 45.9273 66.9187 46.0372 67.1244C46.1435 67.3265 46.2889 67.4825 46.4732 67.5889C46.6611 67.6988 46.8667 67.752 47.0936 67.752C47.3204 67.752 47.526 67.6988 47.7139 67.5889C47.9018 67.4825 48.0471 67.3265 48.157 67.1244C48.2634 66.9187 48.3201 66.6776 48.3201 66.4011Z" fill="#214080"/>
<path d="M50.6739 65.0927V67.2273C50.6739 67.4045 50.7094 67.5286 50.7838 67.6031C50.8583 67.674 50.9859 67.7059 51.1738 67.7059H51.6169V68.2165H51.0781C50.7413 68.2165 50.4896 68.1421 50.323 67.986C50.1564 67.83 50.0713 67.5747 50.0713 67.2237V65.0892H49.5999V64.5928H50.0713V63.6851H50.6704V64.5928H51.6169V65.0892H50.6704L50.6739 65.0927Z" fill="#214080"/>
<path d="M52.6555 64.0148C52.542 64.0148 52.4428 63.9758 52.3612 63.8978C52.2833 63.8162 52.2443 63.717 52.2443 63.6035C52.2443 63.49 52.2833 63.3943 52.3612 63.3163C52.4428 63.2383 52.542 63.1993 52.6555 63.1993C52.7618 63.1993 52.854 63.2383 52.9284 63.3163C53.0064 63.3943 53.0454 63.49 53.0454 63.6035C53.0454 63.717 53.0064 63.8162 52.9284 63.8978C52.854 63.9758 52.7618 64.0148 52.6555 64.0148ZM52.9426 64.5998V68.22H52.3435V64.5998H52.9426Z" fill="#214080"/>
<path d="M55.5481 68.2768C55.2078 68.2768 54.8994 68.2023 54.6265 68.0463C54.35 67.8903 54.1337 67.6704 53.9777 67.3903C53.8182 67.1067 53.7402 66.7769 53.7402 66.4011C53.7402 66.0252 53.8218 65.7061 53.9848 65.426C54.1479 65.1423 54.3641 64.9225 54.6406 64.77C54.9171 64.6176 55.2255 64.5396 55.5729 64.5396C55.9203 64.5396 56.2252 64.6176 56.5052 64.77C56.7817 64.9225 57.0015 65.1388 57.161 65.4189C57.3206 65.699 57.4056 66.0288 57.4056 66.4011C57.4056 66.7734 57.3205 67.1067 57.1539 67.3903C56.9909 67.6704 56.7676 67.8903 56.4804 68.0463C56.2004 68.1988 55.8884 68.2768 55.5481 68.2768ZM55.5481 67.752C55.7573 67.752 55.9593 67.6988 56.1472 67.596C56.3386 67.4932 56.4946 67.3407 56.6116 67.1386C56.7286 66.9365 56.7888 66.6918 56.7888 66.4011C56.7888 66.1103 56.7286 65.8657 56.6116 65.6635C56.4981 65.4614 56.3493 65.3125 56.1614 65.2132C55.977 65.114 55.7785 65.0643 55.5623 65.0643C55.3461 65.0643 55.1369 65.114 54.9561 65.2132C54.7718 65.3125 54.6265 65.4614 54.5201 65.6635C54.4102 65.8657 54.357 66.1139 54.357 66.4011C54.357 66.6883 54.4102 66.9471 54.513 67.1457C54.6194 67.3478 54.7647 67.5002 54.949 67.6031C55.1298 67.7024 55.3283 67.752 55.5481 67.752Z" fill="#214080"/>
<path d="M59.9544 64.5325C60.3905 64.5325 60.7449 64.6672 61.0179 64.9331C61.2944 65.1991 61.4326 65.582 61.4326 66.0855V68.22H60.8336V66.1742C60.8336 65.816 60.7414 65.5395 60.5606 65.348C60.3834 65.1565 60.1388 65.0608 59.8304 65.0608C59.522 65.0608 59.2561 65.1601 59.0682 65.3551C58.8803 65.5536 58.7882 65.8408 58.7882 66.2202V68.2236H58.1891V64.6034H58.7882V65.1211C58.9052 64.9331 59.0647 64.7913 59.2667 64.692C59.4723 64.5892 59.7028 64.536 59.9544 64.536V64.5325Z" fill="#214080"/>
<path d="M65.6262 68.2626C65.3249 68.2626 65.0555 68.2094 64.8144 68.0995C64.5734 67.9931 64.3819 67.8442 64.2472 67.6563C64.1125 67.4648 64.0452 67.2414 64.0416 66.9897H64.6832C64.701 67.206 64.7896 67.3903 64.9491 67.5357C65.1051 67.6811 65.332 67.7485 65.6297 67.7485C65.9275 67.7485 66.1473 67.6775 66.3103 67.5357C66.4769 67.3939 66.562 67.2095 66.562 66.9897C66.562 66.8124 66.5124 66.6705 66.4131 66.5606C66.3139 66.4472 66.1898 66.3656 66.0445 66.3089C65.8991 66.2486 65.7077 66.1883 65.4596 66.1245C65.1547 66.0465 64.9101 65.9685 64.7293 65.8869C64.545 65.8054 64.3926 65.6777 64.2649 65.5111C64.1373 65.3409 64.0735 65.1104 64.0735 64.8232C64.0735 64.5715 64.1338 64.3516 64.2579 64.1566C64.3855 63.9651 64.5627 63.8162 64.7967 63.7134C65.0271 63.607 65.293 63.5503 65.5943 63.5503C66.0267 63.5503 66.3777 63.6602 66.6507 63.8765C66.9272 64.0892 67.0831 64.3765 67.1221 64.7346H66.4557C66.4344 64.5573 66.3458 64.4013 66.1827 64.2701C66.0197 64.1389 65.8034 64.0715 65.534 64.0715C65.2823 64.0715 65.0767 64.1353 64.9208 64.263C64.7612 64.3906 64.6832 64.575 64.6832 64.809C64.6832 64.9757 64.7293 65.114 64.825 65.2239C64.9172 65.3267 65.0342 65.4083 65.1724 65.4614C65.3107 65.5182 65.5057 65.5785 65.7573 65.6458C66.0622 65.7309 66.3068 65.8125 66.4876 65.8976C66.6755 65.9756 66.835 66.1032 66.9661 66.2734C67.1008 66.4401 67.1647 66.6705 67.1647 66.9613C67.1647 67.1882 67.1044 67.401 66.9874 67.596C66.8704 67.7945 66.6932 67.9541 66.4557 68.0747C66.2217 68.1988 65.9488 68.259 65.6297 68.259L65.6262 68.2626Z" fill="#214080"/>
<path d="M69.6248 68.2768C69.2845 68.2768 68.9761 68.2023 68.7031 68.0463C68.4266 67.8903 68.2104 67.6704 68.0544 67.3903C67.8949 67.1067 67.8169 66.7769 67.8169 66.4011C67.8169 66.0252 67.8984 65.7061 68.0615 65.426C68.2246 65.1423 68.4408 64.9225 68.7173 64.77C68.9938 64.6176 69.3022 64.5396 69.6496 64.5396C69.997 64.5396 70.3018 64.6176 70.5819 64.77C70.8584 64.9225 71.0782 65.1388 71.2377 65.4189C71.3972 65.699 71.4823 66.0288 71.4823 66.4011C71.4823 66.7734 71.3972 67.1067 71.2306 67.3903C71.0675 67.6704 70.8442 67.8903 70.5571 68.0463C70.277 68.1988 69.9651 68.2768 69.6248 68.2768ZM69.6248 67.752C69.8339 67.752 70.036 67.6988 70.2239 67.596C70.4153 67.4932 70.5713 67.3407 70.6882 67.1386C70.8052 66.9365 70.8655 66.6918 70.8655 66.4011C70.8655 66.1103 70.8052 65.8657 70.6882 65.6635C70.5748 65.4614 70.4259 65.3125 70.238 65.2132C70.0537 65.114 69.8552 65.0643 69.639 65.0643C69.4227 65.0643 69.2136 65.114 69.0328 65.2132C68.8485 65.3125 68.7031 65.4614 68.5968 65.6635C68.4869 65.8657 68.4337 66.1139 68.4337 66.4011C68.4337 66.6883 68.4869 66.9471 68.5897 67.1457C68.696 67.3478 68.8414 67.5002 69.0257 67.6031C69.2065 67.7024 69.405 67.752 69.6248 67.752Z" fill="#214080"/>
<path d="M72.8648 63.3269V68.2165H72.2657V63.3269H72.8648Z" fill="#214080"/>
<path d="M77.0939 64.5999V68.2201H76.4948V67.6882C76.3814 67.8726 76.2219 68.0144 76.0163 68.1172C75.8142 68.2201 75.5909 68.2732 75.3427 68.2732C75.0556 68.2732 74.8004 68.2165 74.5735 68.103C74.3502 67.986 74.1729 67.8123 74.0418 67.5783C73.9141 67.3407 73.8503 67.057 73.8503 66.7202V64.5999H74.4494V66.6387C74.4494 67.0003 74.538 67.2733 74.7153 67.4648C74.8961 67.6563 75.1442 67.752 75.4597 67.752C75.7752 67.752 76.0304 67.6527 76.2148 67.4577C76.4026 67.2556 76.4948 66.9649 76.4948 66.5855V64.5999H77.0939Z" fill="#214080"/>
<path d="M78.8414 65.0927V67.2273C78.8414 67.4045 78.8769 67.5286 78.9513 67.6031C79.0258 67.674 79.1534 67.7059 79.3413 67.7059H79.7844V68.2165H79.2455C78.9088 68.2165 78.6571 68.1421 78.4905 67.986C78.3239 67.83 78.2388 67.5747 78.2388 67.2237V65.0892H77.7673V64.5928H78.2388V63.6851H78.8379V64.5928H79.7844V65.0892H78.8379L78.8414 65.0927Z" fill="#214080"/>
<path d="M80.8231 64.0148C80.7096 64.0148 80.6104 63.9758 80.5288 63.8978C80.4509 63.8162 80.4119 63.717 80.4119 63.6035C80.4119 63.49 80.4509 63.3943 80.5288 63.3163C80.6104 63.2383 80.7096 63.1993 80.8231 63.1993C80.9294 63.1993 81.0216 63.2383 81.096 63.3163C81.174 63.3943 81.213 63.49 81.213 63.6035C81.213 63.717 81.174 63.8162 81.096 63.8978C81.0216 63.9758 80.9294 64.0148 80.8231 64.0148ZM81.1102 64.5998V68.22H80.5111V64.5998H81.1102Z" fill="#214080"/>
<path d="M83.7156 68.2768C83.3753 68.2768 83.0669 68.2023 82.7939 68.0463C82.5174 67.8903 82.3012 67.6704 82.1452 67.3903C81.9857 67.1067 81.9077 66.7769 81.9077 66.4011C81.9077 66.0252 81.9892 65.7061 82.1523 65.426C82.3154 65.1423 82.5316 64.9225 82.8081 64.77C83.0846 64.6176 83.393 64.5396 83.7404 64.5396C84.0878 64.5396 84.3927 64.6176 84.6727 64.77C84.9492 64.9225 85.169 65.1388 85.3285 65.4189C85.488 65.699 85.5731 66.0288 85.5731 66.4011C85.5731 66.7734 85.488 67.1067 85.3214 67.3903C85.1584 67.6704 84.935 67.8903 84.6479 68.0463C84.3679 68.1988 84.0559 68.2768 83.7156 68.2768ZM83.7156 67.752C83.9247 67.752 84.1268 67.6988 84.3147 67.596C84.5061 67.4932 84.6621 67.3407 84.7791 67.1386C84.896 66.9365 84.9563 66.6918 84.9563 66.4011C84.9563 66.1103 84.896 65.8657 84.7791 65.6635C84.6656 65.4614 84.5167 65.3125 84.3289 65.2132C84.1445 65.114 83.946 65.0643 83.7298 65.0643C83.5135 65.0643 83.3044 65.114 83.1236 65.2132C82.9393 65.3125 82.7939 65.4614 82.6876 65.6635C82.5777 65.8657 82.5245 66.1139 82.5245 66.4011C82.5245 66.6883 82.5777 66.9471 82.6805 67.1457C82.7868 67.3478 82.9322 67.5002 83.1165 67.6031C83.2973 67.7024 83.4958 67.752 83.7156 67.752Z" fill="#214080"/>
<path d="M88.1219 64.5325C88.5579 64.5325 88.9124 64.6672 89.1854 64.9331C89.4619 65.1991 89.6001 65.582 89.6001 66.0855V68.22H89.001V66.1742C89.001 65.816 88.9089 65.5395 88.7281 65.348C88.5508 65.1565 88.3062 65.0608 87.9978 65.0608C87.6894 65.0608 87.4236 65.1601 87.2357 65.3551C87.0478 65.5536 86.9557 65.8408 86.9557 66.2202V68.2236H86.3566V64.6034H86.9557V65.1211C87.0726 64.9331 87.2321 64.7913 87.4342 64.692C87.6398 64.5892 87.8702 64.536 88.1219 64.536V64.5325Z" fill="#214080"/>
<path d="M91.8582 68.2768C91.5817 68.2768 91.3336 68.2271 91.1138 68.1349C90.8976 68.0428 90.7239 67.9116 90.5962 67.7449C90.4686 67.5747 90.3977 67.3762 90.3835 67.1528H91.0039C91.0216 67.3371 91.1067 67.4825 91.2556 67.596C91.408 67.7094 91.6065 67.7662 91.8547 67.7662C92.0851 67.7662 92.2694 67.7165 92.4006 67.6173C92.5353 67.5144 92.5991 67.3868 92.5991 67.2343C92.5991 67.0819 92.5282 66.9578 92.3864 66.8797C92.2411 66.8017 92.0248 66.7237 91.7306 66.6493C91.4647 66.5819 91.245 66.5074 91.0748 66.4365C90.9082 66.3621 90.7593 66.2557 90.6388 66.1103C90.5218 65.9685 90.4615 65.7806 90.4615 65.5501C90.4615 65.3622 90.5147 65.192 90.6246 65.0395C90.738 64.887 90.894 64.7665 91.0961 64.6778C91.2981 64.5857 91.5285 64.536 91.7909 64.536C92.1914 64.536 92.5105 64.6388 92.7586 64.8374C93.0032 65.0395 93.1379 65.3161 93.1592 65.6707H92.553C92.5424 65.4792 92.4679 65.3267 92.3226 65.2132C92.1843 65.0998 92 65.0431 91.7696 65.0431C91.5534 65.0431 91.3797 65.0927 91.252 65.1849C91.1244 65.2735 91.0606 65.3941 91.0606 65.5465C91.0606 65.6636 91.0961 65.7628 91.1705 65.8408C91.2485 65.9153 91.3477 65.9791 91.4647 66.0252C91.5817 66.0713 91.7448 66.121 91.9539 66.1812C92.2127 66.2521 92.4254 66.3195 92.5885 66.3869C92.7515 66.4578 92.8862 66.5606 93.0032 66.6989C93.1202 66.8337 93.184 67.0109 93.1875 67.2308C93.1875 67.4293 93.1308 67.6066 93.0174 67.7626C92.9075 67.9222 92.7551 68.0463 92.553 68.1385C92.3545 68.2271 92.1276 68.2732 91.8653 68.2732L91.8582 68.2768Z" fill="#214080"/>
<path d="M97.2393 68.2626C96.938 68.2626 96.6686 68.2094 96.4276 68.0995C96.1865 67.9931 95.9951 67.8442 95.8604 67.6563C95.7257 67.4648 95.6583 67.2414 95.6548 66.9897H96.2964C96.3141 67.206 96.4028 67.3903 96.5623 67.5357C96.7182 67.6811 96.9451 67.7485 97.2429 67.7485C97.5407 67.7485 97.7604 67.6775 97.9235 67.5357C98.0901 67.3939 98.1752 67.2095 98.1752 66.9897C98.1752 66.8124 98.1256 66.6705 98.0263 66.5606C97.927 66.4472 97.803 66.3656 97.6576 66.3089C97.5123 66.2486 97.3209 66.1883 97.0727 66.1245C96.7679 66.0465 96.5233 65.9685 96.3425 65.8869C96.1582 65.8054 96.0057 65.6777 95.8781 65.5111C95.7505 65.3409 95.6867 65.1104 95.6867 64.8232C95.6867 64.5715 95.747 64.3516 95.871 64.1566C95.9986 63.9651 96.1759 63.8162 96.4098 63.7134C96.6403 63.607 96.9061 63.5503 97.2074 63.5503C97.6399 63.5503 97.9909 63.6602 98.2638 63.8765C98.5403 64.0892 98.6963 64.3765 98.7353 64.7346H98.0688C98.0476 64.5573 97.959 64.4013 97.7959 64.2701C97.6328 64.1389 97.4166 64.0715 97.1472 64.0715C96.8955 64.0715 96.6899 64.1353 96.5339 64.263C96.3744 64.3906 96.2964 64.575 96.2964 64.809C96.2964 64.9757 96.3425 65.114 96.4382 65.2239C96.5304 65.3267 96.6473 65.4083 96.7856 65.4614C96.9238 65.5182 97.1188 65.5785 97.3705 65.6458C97.6754 65.7309 97.92 65.8125 98.1007 65.8976C98.2886 65.9756 98.4481 66.1032 98.5793 66.2734C98.714 66.4401 98.7778 66.6705 98.7778 66.9613C98.7778 67.1882 98.7176 67.401 98.6006 67.596C98.4836 67.7945 98.3063 67.9541 98.0688 68.0747C97.8349 68.1988 97.5619 68.259 97.2429 68.259L97.2393 68.2626Z" fill="#214080"/>
<path d="M99.4265 66.394C99.4265 66.0252 99.5009 65.7026 99.6498 65.426C99.8023 65.1459 100.008 64.9296 100.27 64.7771C100.536 64.6211 100.827 64.5396 101.149 64.5396C101.472 64.5396 101.738 64.6105 101.968 64.7452C102.206 64.8799 102.379 65.0466 102.493 65.2558V64.5998H103.106V68.22H102.493V67.5463C102.376 67.7591 102.199 67.9328 101.961 68.0711C101.724 68.2094 101.451 68.2768 101.142 68.2768C100.834 68.2768 100.533 68.1988 100.27 68.0392C100.008 67.8832 99.8023 67.6598 99.6498 67.3726C99.5009 67.0818 99.4265 66.7556 99.4265 66.3904V66.394ZM102.493 66.4011C102.493 66.1316 102.436 65.894 102.33 65.6919C102.22 65.4863 102.075 65.3303 101.887 65.2274C101.699 65.1211 101.493 65.0643 101.266 65.0643C101.039 65.0643 100.834 65.1211 100.646 65.2274C100.462 65.3303 100.316 65.4827 100.21 65.6848C100.1 65.8869 100.047 66.1245 100.047 66.394C100.047 66.6634 100.1 66.9187 100.21 67.1244C100.316 67.3265 100.462 67.4825 100.646 67.5889C100.834 67.6988 101.039 67.752 101.266 67.752C101.493 67.752 101.699 67.6988 101.887 67.5889C102.075 67.4825 102.22 67.3265 102.33 67.1244C102.436 66.9187 102.493 66.6776 102.493 66.4011Z" fill="#214080"/>
<path d="M107.321 64.5999V68.2201H106.722V67.6882C106.608 67.8726 106.449 68.0144 106.243 68.1172C106.041 68.2201 105.818 68.2732 105.57 68.2732C105.283 68.2732 105.027 68.2165 104.801 68.103C104.577 67.986 104.4 67.8123 104.269 67.5783C104.141 67.3407 104.077 67.057 104.077 66.7202V64.5999H104.676V66.6387C104.676 67.0003 104.765 67.2733 104.942 67.4648C105.123 67.6563 105.371 67.752 105.687 67.752C106.002 67.752 106.257 67.6527 106.442 67.4577C106.63 67.2556 106.722 66.9649 106.722 66.5855V64.5999H107.321Z" fill="#214080"/>
<path d="M108.108 66.394C108.108 66.0252 108.182 65.7025 108.331 65.426C108.484 65.1459 108.689 64.9296 108.952 64.7771C109.217 64.6211 109.512 64.5395 109.838 64.5395C110.118 64.5395 110.38 64.6069 110.621 64.7381C110.862 64.8658 111.047 65.036 111.174 65.2487V63.3269H111.787V68.2165H111.174V67.5357C111.057 67.752 110.88 67.9293 110.642 68.0676C110.409 68.2058 110.139 68.2732 109.831 68.2732C109.522 68.2732 109.217 68.1952 108.952 68.0356C108.689 67.8796 108.484 67.6563 108.331 67.369C108.182 67.0783 108.108 66.7521 108.108 66.3869V66.394ZM111.174 66.4011C111.174 66.1316 111.118 65.894 111.011 65.6919C110.901 65.4863 110.756 65.3302 110.568 65.2274C110.38 65.121 110.175 65.0643 109.948 65.0643C109.721 65.0643 109.515 65.121 109.327 65.2274C109.143 65.3302 108.998 65.4827 108.891 65.6848C108.781 65.8869 108.728 66.1245 108.728 66.394C108.728 66.6634 108.781 66.9187 108.891 67.1244C108.998 67.3265 109.143 67.4825 109.327 67.5889C109.515 67.6988 109.721 67.752 109.948 67.752C110.175 67.752 110.38 67.6988 110.568 67.5889C110.756 67.4825 110.901 67.3265 111.011 67.1244C111.118 66.9187 111.174 66.6776 111.174 66.4011Z" fill="#214080"/>
<path d="M113.106 64.0148C112.993 64.0148 112.893 63.9758 112.812 63.8978C112.734 63.8162 112.695 63.717 112.695 63.6035C112.695 63.49 112.734 63.3943 112.812 63.3163C112.893 63.2383 112.993 63.1993 113.106 63.1993C113.212 63.1993 113.305 63.2383 113.379 63.3163C113.457 63.3943 113.496 63.49 113.496 63.6035C113.496 63.717 113.457 63.8162 113.379 63.8978C113.305 63.9758 113.212 64.0148 113.106 64.0148ZM113.393 64.5998V68.22H112.794V64.5998H113.393Z" fill="#214080"/>
<path d="M115.953 65.9153C115.953 65.4685 116.052 65.0643 116.254 64.7026C116.46 64.3445 116.736 64.0644 117.087 63.8588C117.435 63.6567 117.824 63.5574 118.253 63.5574C118.75 63.5574 119.186 63.6779 119.561 63.919C119.934 64.1602 120.207 64.5041 120.38 64.9473H119.664C119.537 64.6707 119.349 64.458 119.111 64.3126C118.87 64.1602 118.583 64.0821 118.253 64.0821C117.924 64.0821 117.637 64.1602 117.381 64.3126C117.13 64.4615 116.931 64.6743 116.782 64.9473C116.637 65.2239 116.57 65.5465 116.57 65.9153C116.57 66.284 116.64 66.5996 116.782 66.8762C116.931 67.1528 117.13 67.369 117.381 67.518C117.637 67.6669 117.927 67.7413 118.253 67.7413C118.58 67.7413 118.867 67.6669 119.111 67.518C119.352 67.369 119.537 67.1598 119.664 66.8833H120.38C120.207 67.323 119.934 67.6633 119.561 67.9044C119.186 68.142 118.75 68.259 118.253 68.259C117.824 68.259 117.435 68.1597 117.087 67.9647C116.736 67.7626 116.46 67.4861 116.254 67.1315C116.052 66.7734 115.953 66.3691 115.953 65.9188V65.9153Z" fill="#214080"/>
<path d="M122.855 68.2768C122.514 68.2768 122.206 68.2023 121.933 68.0463C121.656 67.8903 121.44 67.6704 121.284 67.3903C121.125 67.1067 121.047 66.7769 121.047 66.4011C121.047 66.0252 121.128 65.7061 121.291 65.426C121.454 65.1423 121.671 64.9225 121.947 64.77C122.224 64.6176 122.532 64.5396 122.879 64.5396C123.227 64.5396 123.532 64.6176 123.812 64.77C124.088 64.9225 124.308 65.1388 124.468 65.4189C124.627 65.699 124.712 66.0288 124.712 66.4011C124.712 66.7734 124.627 67.1067 124.46 67.3903C124.297 67.6704 124.074 67.8903 123.787 68.0463C123.507 68.1988 123.195 68.2768 122.855 68.2768ZM122.855 67.752C123.064 67.752 123.266 67.6988 123.454 67.596C123.645 67.4932 123.801 67.3407 123.918 67.1386C124.035 66.9365 124.095 66.6918 124.095 66.4011C124.095 66.1103 124.035 65.8657 123.918 65.6635C123.805 65.4614 123.656 65.3125 123.468 65.2132C123.284 65.114 123.085 65.0643 122.869 65.0643C122.653 65.0643 122.443 65.114 122.263 65.2132C122.078 65.3125 121.933 65.4614 121.827 65.6635C121.717 65.8657 121.664 66.1139 121.664 66.4011C121.664 66.6883 121.717 66.9471 121.82 67.1457C121.926 67.3478 122.071 67.5002 122.256 67.6031C122.436 67.7024 122.635 67.752 122.855 67.752Z" fill="#214080"/>
<path d="M126.095 65.1884C126.201 64.9828 126.353 64.8232 126.545 64.7098C126.74 64.5927 126.981 64.5325 127.261 64.5325V65.153H127.105C126.428 65.153 126.095 65.5217 126.095 66.2522V68.2165H125.495V64.5963H126.095V65.1884Z" fill="#214080"/>
<path d="M128.555 65.2629C128.672 65.0572 128.849 64.8835 129.087 64.7452C129.324 64.6069 129.597 64.5396 129.905 64.5396C130.214 64.5396 130.522 64.6176 130.784 64.7771C131.043 64.9296 131.249 65.1459 131.398 65.426C131.55 65.7026 131.628 66.0252 131.628 66.394C131.628 66.7627 131.55 67.0854 131.398 67.3761C131.249 67.6633 131.047 67.8832 130.784 68.0427C130.522 68.2023 130.231 68.2803 129.905 68.2803C129.601 68.2803 129.328 68.2129 129.094 68.0747C128.856 67.9364 128.675 67.7626 128.555 67.557V69.9362H127.956V64.6034H128.555V65.27V65.2629ZM131.015 66.394C131.015 66.1245 130.958 65.8869 130.845 65.6848C130.735 65.4827 130.59 65.3303 130.402 65.2274C130.214 65.1211 130.008 65.0643 129.781 65.0643C129.554 65.0643 129.363 65.1211 129.175 65.2274C128.987 65.3303 128.838 65.4863 128.725 65.6919C128.611 65.8976 128.555 66.1351 128.555 66.4011C128.555 66.667 128.611 66.9187 128.725 67.1244C128.838 67.3265 128.987 67.4825 129.175 67.5889C129.363 67.6988 129.562 67.752 129.781 67.752C130.001 67.752 130.214 67.6988 130.402 67.5889C130.59 67.4825 130.735 67.3265 130.845 67.1244C130.958 66.9187 131.015 66.6741 131.015 66.394Z" fill="#214080"/>
<path d="M132.607 68.2555C132.493 68.2555 132.394 68.2165 132.312 68.1385C132.234 68.0605 132.195 67.9648 132.195 67.8513C132.195 67.7378 132.234 67.6421 132.312 67.5641C132.394 67.4861 132.493 67.4471 132.607 67.4471C132.713 67.4471 132.805 67.4861 132.879 67.5641C132.957 67.6421 132.996 67.7378 132.996 67.8513C132.996 67.9648 132.957 68.0605 132.879 68.1385C132.805 68.2165 132.713 68.2555 132.607 68.2555Z" fill="#214080"/>
<path d="M63.8573 15.4417C66.8314 15.4417 69.405 15.9948 71.5744 17.1047C73.751 18.2145 75.4171 19.7959 76.5833 21.856C77.7461 23.916 78.3274 26.3378 78.3274 29.1247C78.3274 31.9117 77.7461 34.337 76.5833 36.3864C75.4206 38.4323 73.751 39.996 71.5744 41.0774C69.4014 42.1553 66.8279 42.6943 63.8573 42.6943H55.3779V15.4417H63.8573ZM63.8573 39.7584C67.3773 39.7584 70.0608 38.8259 71.9077 36.9644C73.7581 35.0993 74.6833 32.4825 74.6833 29.1176C74.6833 25.7527 73.7474 23.0863 71.8828 21.1823C70.0218 19.2747 67.3454 18.3244 63.8537 18.3244H58.9263V39.7549H63.8537L63.8573 39.7584Z" fill="white"/>
<path d="M91.0642 15.4417V42.6907H87.5122V15.4417H91.0642Z" fill="white"/>
<path d="M110.256 42.9637C108.459 42.9637 106.85 42.6446 105.424 42.0099C104.007 41.3717 102.893 40.4852 102.085 39.3506C101.277 38.2124 100.862 36.904 100.837 35.4219H104.627C104.762 36.6984 105.286 37.7728 106.208 38.6415C107.133 39.5137 108.484 39.9498 110.256 39.9498C112.029 39.9498 113.283 39.5279 114.258 38.6805C115.237 37.833 115.729 36.748 115.729 35.4219C115.729 34.3795 115.442 33.532 114.864 32.8796C114.294 32.2272 113.574 31.7308 112.716 31.394C111.858 31.0536 110.703 30.6884 109.246 30.2948C107.445 29.8268 105.999 29.3587 104.918 28.8907C103.84 28.4191 102.915 27.6816 102.149 26.6817C101.38 25.6782 100.997 24.3273 100.997 22.6324C100.997 21.1468 101.373 19.8278 102.128 18.6789C102.886 17.5337 103.95 16.6472 105.318 16.0196C106.686 15.3956 108.257 15.08 110.029 15.08C112.578 15.08 114.669 15.7218 116.3 17.0018C117.927 18.2783 118.849 19.9731 119.054 22.0829H115.148C115.013 21.0404 114.464 20.1221 113.5 19.3278C112.539 18.53 111.263 18.1294 109.675 18.1294C108.186 18.1294 106.974 18.5123 106.034 19.2817C105.098 20.0511 104.63 21.1255 104.63 22.5083C104.63 23.4976 104.91 24.306 105.474 24.9301C106.034 25.5577 106.725 26.0293 107.541 26.3555C108.363 26.6817 109.515 27.054 111.004 27.4724C112.801 27.9723 114.248 28.4616 115.339 28.9439C116.435 29.4225 117.374 30.1636 118.154 31.167C118.938 32.1705 119.327 33.5356 119.327 35.2517C119.327 36.5814 118.977 37.8366 118.271 39.0102C117.566 40.1839 116.523 41.1341 115.141 41.861C113.762 42.5914 112.135 42.9531 110.26 42.9531L110.256 42.9637Z" fill="white"/>
</g>
<defs>
<clipPath id="clip0_178_277">
<rect width="133" height="70" fill="white"/>
</clipPath>
</defs>
</svg>
