<svg width="464" height="464" viewBox="0 0 464 464" fill="none" xmlns="http://www.w3.org/2000/svg">
<g opacity="0.5" clip-path="url(#clip0_41_236)">
<mask id="mask0_41_236" style="mask-type:luminance" maskUnits="userSpaceOnUse" x="0" y="0" width="464" height="464">
<path d="M464 0H0V464H464V0Z" fill="white"/>
</mask>
<g mask="url(#mask0_41_236)">
<g opacity="0.654934">
<path d="M79.9766 147.492C81.2281 147.492 82.2422 148.506 82.2422 149.758C82.2422 151.009 81.2281 152.023 79.9766 152.023C78.725 152.023 77.7109 151.009 77.7109 149.758C77.7109 148.506 78.725 147.492 79.9766 147.492Z" fill="#122642" fill-opacity="0.3"/>
</g>
<g opacity="0.329513">
<path d="M89.9453 212.742C91.1968 212.742 92.2109 213.756 92.2109 215.008C92.2109 216.259 91.1968 217.273 89.9453 217.273C88.6938 217.273 87.6797 216.259 87.6797 215.008C87.6797 213.756 88.6938 212.742 89.9453 212.742Z" fill="#122642" fill-opacity="0.3"/>
</g>
<g opacity="0.111642">
<path d="M79.9766 268.023C81.2281 268.023 82.2422 269.038 82.2422 270.289C82.2422 271.541 81.2281 272.555 79.9766 272.555C78.725 272.555 77.7109 271.541 77.7109 270.289C77.7109 269.038 78.725 268.023 79.9766 268.023Z" fill="#122642" fill-opacity="0.3"/>
</g>
<g opacity="0.546835">
<path d="M115.32 296.117C116.572 296.117 117.586 297.131 117.586 298.383C117.586 299.634 116.572 300.648 115.32 300.648C114.069 300.648 113.055 299.634 113.055 298.383C113.055 297.131 114.069 296.117 115.32 296.117Z" fill="#122642" fill-opacity="0.3"/>
</g>
<g opacity="0.248842">
<path d="M170.602 322.398C171.853 322.398 172.867 323.413 172.867 324.664C172.867 325.916 171.853 326.93 170.602 326.93C169.35 326.93 168.336 325.916 168.336 324.664C168.336 323.413 169.35 322.398 170.602 322.398Z" fill="#122642" fill-opacity="0.3"/>
</g>
<g opacity="0.962841">
<path d="M218.633 361.367C219.884 361.367 220.898 362.381 220.898 363.633C220.898 364.884 219.884 365.898 218.633 365.898C217.381 365.898 216.367 364.884 216.367 363.633C216.367 362.381 217.381 361.367 218.633 361.367Z" fill="#122642" fill-opacity="0.3"/>
</g>
<g opacity="0.928765">
<path d="M300.195 355.93C301.447 355.93 302.461 356.944 302.461 358.195C302.461 359.447 301.447 360.461 300.195 360.461C298.944 360.461 297.93 359.447 297.93 358.195C297.93 356.944 298.944 355.93 300.195 355.93Z" fill="#122642" fill-opacity="0.3"/>
</g>
<g opacity="0.753394">
<path d="M263.039 391.273C264.291 391.273 265.305 392.288 265.305 393.539C265.305 394.791 264.291 395.805 263.039 395.805C261.788 395.805 260.773 394.791 260.773 393.539C260.773 392.288 261.788 391.273 263.039 391.273Z" fill="#122642" fill-opacity="0.3"/>
</g>
<g opacity="0.414977">
<path d="M355.477 268.023C356.728 268.023 357.742 269.038 357.742 270.289C357.742 271.541 356.728 272.555 355.477 272.555C354.225 272.555 353.211 271.541 353.211 270.289C353.211 269.038 354.225 268.023 355.477 268.023Z" fill="#122642" fill-opacity="0.3"/>
</g>
<g opacity="0.633628">
<path d="M345.508 155.648C346.759 155.648 347.773 156.663 347.773 157.914C347.773 159.166 346.759 160.18 345.508 160.18C344.256 160.18 343.242 159.166 343.242 157.914C343.242 156.663 344.256 155.648 345.508 155.648Z" fill="#122642" fill-opacity="0.3"/>
</g>
<g opacity="0.248842">
<path d="M333.727 103.992C334.978 103.992 335.992 105.006 335.992 106.258C335.992 107.509 334.978 108.523 333.727 108.523C332.475 108.523 331.461 107.509 331.461 106.258C331.461 105.006 332.475 103.992 333.727 103.992Z" fill="#122642" fill-opacity="0.3"/>
</g>
<g opacity="0.142162">
<path d="M227.695 95.8359C228.947 95.8359 229.961 96.85 229.961 98.1016C229.961 99.3531 228.947 100.367 227.695 100.367C226.444 100.367 225.43 99.3531 225.43 98.1016C225.43 96.85 226.444 95.8359 227.695 95.8359Z" fill="#122642" fill-opacity="0.3"/>
</g>
<g opacity="0.984483">
<path d="M143.414 127.555C144.666 127.555 145.68 128.569 145.68 129.82C145.68 131.072 144.666 132.086 143.414 132.086C142.163 132.086 141.148 131.072 141.148 129.82C141.148 128.569 142.163 127.555 143.414 127.555Z" fill="#122642" fill-opacity="0.3"/>
</g>
<g opacity="0.248842">
<path d="M169.695 67.7422C170.947 67.7422 171.961 68.7563 171.961 70.0078C171.961 71.2593 170.947 72.2734 169.695 72.2734C168.444 72.2734 167.43 71.2593 167.43 70.0078C167.43 68.7563 168.444 67.7422 169.695 67.7422Z" fill="#122642" fill-opacity="0.3"/>
</g>
<g opacity="0.414977">
<path d="M128.008 195.523C129.259 195.523 130.273 196.538 130.273 197.789C130.273 199.041 129.259 200.055 128.008 200.055C126.756 200.055 125.742 199.041 125.742 197.789C125.742 196.538 126.756 195.523 128.008 195.523Z" fill="#122642" fill-opacity="0.3"/>
</g>
<g opacity="0.0841526">
<path d="M377.68 310.617C378.68 310.617 379.492 311.429 379.492 312.43C379.492 313.43 378.68 314.242 377.68 314.242C376.679 314.242 375.867 313.43 375.867 312.43C375.867 311.429 376.679 310.617 377.68 310.617Z" fill="#122642" fill-opacity="0.3"/>
</g>
<g opacity="0.75">
<path d="M361.426 221.38C338.328 106.445 264.697 70.9477 193.659 122.606C127.743 170.539 93.4674 136.67 80.1178 210.343C66.8548 283.538 137.261 353.653 208.395 371.731C278.923 389.653 378.668 307.185 361.426 221.38Z" stroke="#122642" stroke-opacity="0.3"/>
</g>
<g opacity="0.75">
<path d="M350.06 177.794C289.228 77.5795 207.913 69.2569 158.693 142.006C113.023 209.51 69.2675 189.326 81.7856 263.145C94.2223 336.485 184.286 378.456 257.327 371.248C329.745 364.1 395.473 252.611 350.06 177.794Z" stroke="#1F4E79" stroke-opacity="0.1" stroke-miterlimit="3"/>
</g>
<g opacity="0.75">
<path d="M348.762 243.081C335.984 126.561 268.889 55.7378 190.24 93.4703C116.757 128.724 117.017 125.212 97.1807 197.413C77.4729 269.146 158.658 364.128 227.909 388.46C296.554 412.579 358.299 330.071 348.762 243.081Z" stroke="#122642" stroke-opacity="0.3"/>
</g>
<g opacity="0.5">
<path d="M118.725 237.289C146.923 351.096 222.852 412.282 295.773 364.407C363.904 319.676 364.128 323.198 374.165 248.982C384.136 175.247 291.016 91.9483 219.125 77.0699C147.862 62.321 97.6743 152.321 118.725 237.289Z" stroke="#122642" stroke-opacity="0.3"/>
</g>
<g opacity="0.75">
<path d="M350.06 177.794C289.228 77.5795 207.913 69.2569 158.693 142.006C113.023 209.51 69.2675 189.326 81.7856 263.145C94.2223 336.485 184.286 378.456 257.327 371.248C329.745 364.1 395.473 252.611 350.06 177.794Z" stroke="#1F4E79" stroke-opacity="0.1" stroke-miterlimit="3"/>
</g>
<path d="M337.917 282.298C365.554 168.383 326.565 78.9548 239.769 87.6709C158.675 95.8139 160.115 92.6008 116.892 153.742C73.9498 214.487 117.967 331.427 174.805 377.873C231.145 423.913 317.282 367.341 337.917 282.298Z" stroke="#1F4E79" stroke-opacity="0.1" stroke-linecap="round" stroke-linejoin="round"/>
<path d="M225.959 349.956C166.773 347.317 120.952 295.079 123.703 233.378C126.453 171.677 176.74 123.722 235.926 126.36C295.112 128.999 340.933 181.237 338.182 242.939C335.432 304.64 285.145 352.594 225.959 349.956Z" stroke="#122642" stroke-opacity="0.3" stroke-width="0.649708"/>
<path d="M232.324 125.395C291.707 125.395 339.922 173.61 339.922 232.994C339.922 292.377 291.707 340.592 232.324 340.592C172.94 340.592 124.725 292.377 124.725 232.994C124.725 173.61 172.94 125.395 232.324 125.395Z" fill="#1F4E79" fill-opacity="0.1"/>
</g>
</g>
<defs>
<clipPath id="clip0_41_236">
<rect width="464" height="464" fill="white"/>
</clipPath>
</defs>
</svg>
